<svg xmlns="http://www.w3.org/2000/svg" viewBox="0 0 136 136.06"><defs><style>.cls-1,.cls-2{fill:#fff;}.cls-1{fill-rule:evenodd;}</style></defs><title>Ресурс 11design</title><g id="Слой_2" data-name="Слой 2"><g id="Слой_1-2" data-name="Слой 1"><path class="cls-1" d="M64.88,26.44H62.34L31.82,89,53.4,114.4l0,0H84l0,0L105.51,89,75,26.44H72.51V73.87a10.17,10.17,0,1,1-7.63,0V26.44Z"/><polygon class="cls-1" points="53.41 125.89 83.92 125.89 83.92 136.06 53.41 136.06 53.41 125.89 53.41 125.89"/><path class="cls-2" d="M125.83,0a10.18,10.18,0,0,0-10,8.25V7.63h-37v-7H58.49v7H20.27V8.9a10.18,10.18,0,1,0-.1,3.18h.1v1.27H51.94C41,18.74,10.73,37,10.21,74.39H1.27V94.1H21.62V74.39H14c.63-37.82,35.84-55.77,44.48-59.6v5.56H78.84v-7h37V12.08A10.17,10.17,0,1,0,125.83,0ZM17.68,90.28H5.21V78.2H17.68Z"/></g></g></svg>