<?xml version="1.0" encoding="UTF-8"?>
<!DOCTYPE svg PUBLIC "-//W3C//DTD SVG 1.1//EN" "http://www.w3.org/Graphics/SVG/1.1/DTD/svg11.dtd">
<!-- Creator: CorelDRAW 2017 -->
<svg xmlns="http://www.w3.org/2000/svg" xml:space="preserve" width="109px" height="98px" version="1.1" style="shape-rendering:geometricPrecision; text-rendering:geometricPrecision; image-rendering:optimizeQuality; fill-rule:evenodd; clip-rule:evenodd"
viewBox="0 0 24 21"
 xmlns:xlink="http://www.w3.org/1999/xlink">
 <defs>
  <style type="text/css">
   <![CDATA[
    .str0 {stroke:#FEFEFE;stroke-width:1}
    .str1 {stroke:#FEFEFE;stroke-width:1;stroke-linecap:round;stroke-linejoin:round}
    .fil0 {fill:none}
    .fil1 {fill:#FEFEFE}
   ]]>
  </style>
 </defs>
 <g id="Слой_x0020_1">
  <metadata id="CorelCorpID_0Corel-Layer"/>
  <path class="fil0 str0" d="M1 7l0 13c0,1 1,1 1,1l18 0 0 -4m0 -5l0 -4 -3 0"/>
  <path class="fil0 str0" d="M7 6l-5 0c-1,0 -1,1 -1,1l0 0c0,1 1,1 1,1l16 0 0 -3 -5 0"/>
  <path class="fil0 str0" d="M20 12l-6 0c-1,0 -2,1 -2,2l0 0c0,1 1,2 2,2l6 0c0,0 1,0 1,-1l0 -3c0,0 0,-1 -1,-1z"/>
  <circle class="fil1" cx="15" cy="14" r="1"/>
  <polyline class="fil0 str0" points="4,8 10,2 16,8 "/>
  <polyline class="fil0 str1" points="7,8 10,5 13,8 "/>
  <line class="fil0 str1" x1="18" y1="1" x2="18" y2= "3" />
  <line class="fil0 str1" x1="23" y1="6" x2="21" y2= "6" />
  <line class="fil0 str1" x1="22" y1="2" x2="20" y2= "3" />
 </g>
</svg>
