<?xml version="1.0" encoding="UTF-8"?>
<!DOCTYPE svg PUBLIC "-//W3C//DTD SVG 1.1//EN" "http://www.w3.org/Graphics/SVG/1.1/DTD/svg11.dtd">
<!-- Creator: CorelDRAW 2017 -->
<svg xmlns="http://www.w3.org/2000/svg" xml:space="preserve" width="109px" height="98px" version="1.1" style="shape-rendering:geometricPrecision; text-rendering:geometricPrecision; image-rendering:optimizeQuality; fill-rule:evenodd; clip-rule:evenodd"
viewBox="0 0 78 75"
 xmlns:xlink="http://www.w3.org/1999/xlink">
 <defs>
  <style type="text/css">
   <![CDATA[
    .str0 {stroke:#FEFEFE;stroke-width:3.29931}
    .str1 {stroke:#FEFEFE;stroke-width:3.29931;stroke-linecap:round;stroke-linejoin:round}
    .fil0 {fill:none}
   ]]>
  </style>
 </defs>
 <g id="Слой_x0020_1">
  <metadata id="CorelCorpID_0Corel-Layer"/>
  <path class="fil0 str0" d="M2 27l0 24 17 22 17 0 0 -17 -14 -18c-1,-1 0,-1 -1,0 -1,2 -3,6 1,10 2,2 3,3 4,4 1,2 4,3 2,5 -1,2 -3,1 -6,-1 -3,-2 -14,-12 -14,-12l0 -12c0,0 0,-5 -6,-6z"/>
  <path class="fil0 str0" d="M76 27l0 24 -17 22 -17 0 0 -17 14 -18c1,-1 1,-1 1,0 1,1 4,6 -1,10 -2,2 -3,4 -4,5 -1,1 -3,3 -2,5 1,2 3,1 6,-1 3,-2 14,-12 14,-12l0 -12c0,0 0,-5 6,-6z"/>
  <polygon class="fil0 str1" points="24,10 24,29 39,40 39,21 "/>
  <polygon class="fil0 str1" points="53,10 53,29 39,40 39,21 "/>
  <polyline class="fil0 str1" points="24,10 39,2 53,10 "/>
 </g>
</svg>
