<svg id="Слой_1" data-name="Слой 1" xmlns="http://www.w3.org/2000/svg" viewBox="0 0 21.41 31.01"><defs><style>.cls-1{fill:#fff;fill-rule:evenodd;}</style></defs><title>2</title><path class="cls-1" d="M4.61,9.17a.75.75,0,1,1-.75.75.75.75,0,0,1,.75-.75ZM3.22,5.63a.6.6,0,1,1-.85.85L.18,4.28A.6.6,0,0,1,1,3.43L3.22,5.63Zm8.55,24.19a.6.6,0,1,1,0,1.2h-2a.6.6,0,1,1,0-1.2Zm-.92-4.05a.6.6,0,0,1,0,1.2H8.08a.6.6,0,0,1-.6-.6V26.3a9.46,9.46,0,0,0-.05-1,7.21,7.21,0,0,0-.22-1.15,9.56,9.56,0,0,0-2.13-3.53,15.5,15.5,0,0,1-1.54-2.09,8.22,8.22,0,0,1-.83-2,8.27,8.27,0,0,1-.2-3.32A8.15,8.15,0,0,1,2.77,12a.6.6,0,1,1,1.15.34,7,7,0,0,0-.21,1,7.17,7.17,0,0,0,.17,2.85,7,7,0,0,0,.71,1.71A14.7,14.7,0,0,0,6,19.81a10.48,10.48,0,0,1,2.36,4,8.4,8.4,0,0,1,.25,1.34c0,.21,0,.42,0,.63ZM6.61,8.6a.6.6,0,1,1-.69-1A8.22,8.22,0,0,1,17.29,19.19l-.71.94a13.07,13.07,0,0,0-2.39,4A7.88,7.88,0,0,0,13.93,26a10.75,10.75,0,0,0,.07,1.5c.11,1,.08,1.26-.69,1.35a2.72,2.72,0,0,1-.38,0H8.76a.6.6,0,1,1,0-1.2h4.4c.33,0-.35,0-.36,0a11.86,11.86,0,0,1-.07-1.67A9.09,9.09,0,0,1,13,23.79a13.87,13.87,0,0,1,2.59-4.39l.69-.92A7,7,0,0,0,6.61,8.6Zm4.1,2a.6.6,0,0,1,0-1.2,5,5,0,0,1,3.57,1.48h0a5,5,0,0,1,1.48,3.57.6.6,0,0,1-1.2,0,3.85,3.85,0,0,0-3.85-3.85ZM19,6.47a.6.6,0,1,1-.85-.85l2.19-2.19a.6.6,0,1,1,.85.85L19,6.47ZM11.31,3.7a.6.6,0,1,1-1.2,0V.6a.6.6,0,0,1,1.2,0V3.7Z"/></svg>