<svg xmlns="http://www.w3.org/2000/svg" viewBox="0 0 112 133.39"><defs><style>.cls-1{fill:#fff;fill-rule:evenodd;}</style></defs><title>Ресурс 13installation</title><g id="Слой_2" data-name="Слой 2"><g id="Слой_1-2" data-name="Слой 1"><path class="cls-1" d="M56,81.87a55.93,55.93,0,0,1,27.07,6.94v44.58H28.93V88.81A55.92,55.92,0,0,1,56,81.87Zm30.26,8.84A56.17,56.17,0,0,1,112,133.39H86.26V90.71ZM25.74,133.39H0A56.17,56.17,0,0,1,25.74,90.71v42.68Z"/><path class="cls-1" d="M20.57,33.77h4.8S28.88,16.53,44.2,7.59l.64,18.52h2.55V.57c9.07-.76,6.1-.76,15.17,0V26.11h2.55l.64-18.52c15.33,8.94,18.82,26.18,18.82,26.18h5.28V44.95H20.57V33.77Z"/><path class="cls-1" d="M84.78,49.1a29.85,29.85,0,0,1-59.13,0Z"/></g></g></svg>