<svg xmlns="http://www.w3.org/2000/svg" xml:space="preserve"  version="1.1" style="shape-rendering:geometricPrecision; text-rendering:geometricPrecision; image-rendering:optimizeQuality; fill-rule:evenodd; clip-rule:evenodd"
viewBox="0 0 379 70"
 xmlns:xlink="http://www.w3.org/1999/xlink">
 <defs>
  <style type="text/css">
    .fil1 {fill:#FEFEFE}
    .fil0 {fill:#FEFEFE;fill-rule:nonzero}
  </style>
 </defs>
 <g id="Слой_x0020_1">
  <metadata id="CorelCorpID_0Corel-Layer"/>
  <g id="_2886048031696">
   <path class="fil0" d="M88 49l14 0c7,0 11,-3 11,-8 0,-4 -2,-6 -6,-7 2,-1 4,-3 4,-7 0,-2 -1,-4 -2,-5 -2,-2 -4,-3 -8,-3l-13 0 0 30zm5 -17l0 -8 7 0c3,0 5,1 5,4 0,3 -2,4 -6,4l-7 0zm0 12l0 -8 8 0c4,0 6,1 6,4 0,3 -2,4 -6,4l-9 0z"/>
   <polygon class="fil0" points="122,49 144,49 144,45 127,45 127,37 141,37 141,32 127,32 127,25 143,25 143,20 122,20 "/>
   <path class="fil0" d="M163 50c6,0 11,-3 11,-9 0,-5 -3,-7 -9,-9 -6,-1 -7,-2 -7,-5 0,-2 2,-4 5,-4 3,0 5,1 8,3l3 -4c-3,-2 -6,-4 -11,-4 -6,0 -10,4 -10,9 0,6 4,7 10,9 5,1 7,2 7,5 0,2 -2,4 -5,4 -4,0 -6,-1 -9,-4l-3 4c4,3 8,5 12,5z"/>
   <polygon class="fil0" points="189,49 194,49 194,25 203,25 203,20 180,20 180,25 189,25 "/>
   <path class="fil0" d="M235 50c6,0 11,-3 11,-9 0,-5 -3,-7 -9,-9 -6,-1 -7,-2 -7,-5 0,-2 2,-4 5,-4 3,0 5,1 8,3l3 -4c-3,-2 -6,-4 -11,-4 -6,0 -10,4 -10,9 0,6 4,7 10,9 5,1 7,2 7,5 0,2 -2,4 -5,4 -4,0 -6,-1 -9,-4l-3 4c4,3 8,5 12,5z"/>
   <polygon class="fil0" points="261,49 266,49 266,25 275,25 275,20 251,20 251,25 261,25 "/>
   <path class="fil0" d="M277 49l5 0 3 -7 14 0 3 7 5 0 -13 -30 -5 0 -13 30zm10 -12l5 -12 5 12 -10 0z"/>
   <polygon class="fil0" points="316,49 321,49 321,28 337,49 342,49 342,20 336,20 336,40 321,20 316,20 "/>
   <path class="fil0" d="M352 49l11 0c9,0 16,-6 16,-15 0,-8 -6,-15 -16,-15l-11 0 0 30zm5 -5l0 -20 6 0c6,0 10,4 10,10 0,6 -4,10 -10,10l-6 0z"/>
   <path class="fil1" d="M50 6c-4,-4 -10,-6 -18,-6l-31 0 0 57 10 -11 0 0c5,4 9,6 15,6 5,0 9,-2 9,-6 0,-4 -2,-5 -11,-8 -10,-2 -16,-6 -16,-15 0,-8 7,-14 17,-14 7,0 12,2 17,6l9 -9z"/>
   <path class="fil1" d="M0 70l32 0c16,0 26,-7 26,-19 0,-10 -6,-14 -14,-17 5,-3 10,-7 10,-16 0,-4 -1,-7 -3,-10l-14 15 0 0c-4,-3 -9,-5 -13,-5 -5,0 -8,3 -8,6 0,4 2,5 12,8 10,3 16,6 16,15 0,9 -7,15 -18,15 -7,0 -14,-2 -19,-7l-6 7 0 10z"/>
  </g>
 </g>
</svg>
