<svg xmlns="http://www.w3.org/2000/svg" viewBox="0 0 143 134.45"><defs><style>.cls-1{fill:#fff;fill-rule:evenodd;}</style></defs><title>Ресурс 9print</title><g id="Слой_2" data-name="Слой 2"><g id="Слой_1-2" data-name="Слой 1"><path class="cls-1" d="M3.4,90.19H23.15v37.45A6.83,6.83,0,0,0,30,134.45H114.4a6.83,6.83,0,0,0,6.81-6.81V90.19H139.6a3.41,3.41,0,0,0,3.4-3.4V38.44a13.66,13.66,0,0,0-13.62-13.62h-8.17v-18A6.83,6.83,0,0,0,114.4,0H30a6.83,6.83,0,0,0-6.81,6.81v18H13.62A13.66,13.66,0,0,0,0,38.44V86.78a3.41,3.41,0,0,0,3.4,3.4Zm104.9-48.26H90.78v3.15h17.52V41.93Zm10-3.5a4.94,4.94,0,1,1-4.94,4.94,4.94,4.94,0,0,1,4.94-4.94ZM42.73,79.87h58.56a4.27,4.27,0,0,1,4.26,4.26h0a4.27,4.27,0,0,1-4.26,4.26H42.73a4.27,4.27,0,0,1-4.26-4.26h0a4.27,4.27,0,0,1,4.26-4.26Zm0,16.31h58.56a4.27,4.27,0,0,1,4.26,4.26h0a4.27,4.27,0,0,1-4.26,4.26H42.73a4.27,4.27,0,0,1-4.26-4.26h0a4.27,4.27,0,0,1,4.26-4.26Zm0,15.46h58.56a4.27,4.27,0,0,1,4.26,4.26h0a4.27,4.27,0,0,1-4.26,4.26H42.73a4.27,4.27,0,0,1-4.26-4.26h0a4.27,4.27,0,0,1,4.26-4.26ZM30.3,71.8h83.76v55.84H30.3V71.8Zm83.76-47H30.3v-18h83.76v18Z"/></g></g></svg>